<?xml version="1.0" encoding="utf-8" standalone="no"?>
<!DOCTYPE svg PUBLIC "-//W3C//DTD SVG 1.1//EN"
  "http://www.w3.org/Graphics/SVG/1.1/DTD/svg11.dtd">
<svg xmlns:xlink="http://www.w3.org/1999/xlink" width="316.8pt" height="590.796pt" viewBox="0 0 316.8 590.796" xmlns="http://www.w3.org/2000/svg" version="1.1">
 <metadata>
  <rdf:RDF xmlns:dc="http://purl.org/dc/elements/1.1/" xmlns:cc="http://creativecommons.org/ns#" xmlns:rdf="http://www.w3.org/1999/02/22-rdf-syntax-ns#">
   <cc:Work>
    <dc:type rdf:resource="http://purl.org/dc/dcmitype/StillImage"/>
    <dc:date>2026-04-08T16:09:39.861203</dc:date>
    <dc:format>image/svg+xml</dc:format>
    <dc:creator>
     <cc:Agent>
      <dc:title>Matplotlib v3.10.8, https://matplotlib.org/</dc:title>
     </cc:Agent>
    </dc:creator>
   </cc:Work>
  </rdf:RDF>
 </metadata>
 <defs>
  <style type="text/css">*{stroke-linejoin: round; stroke-linecap: butt}</style>
 </defs>
 <g id="figure_1">
  <g id="patch_1">
   <path d="M 0 590.796 
L 316.8 590.796 
L 316.8 0 
L 0 0 
z
" style="fill: #ffffff"/>
  </g>
  <g id="axes_1">
   <g id="patch_2">
    <path d="M 158.4 50.04 
Q 158.4 58.053054 158.4 64.389057 
" style="fill: none; stroke: #6b7280; stroke-width: 1.5; stroke-linecap: round"/>
    <path d="M 160.8 59.589057 
L 158.4 64.389057 
L 156 59.589057 
z
" style="fill: #6b7280; stroke: #6b7280; stroke-width: 1.5; stroke-linecap: round"/>
   </g>
   <g id="patch_3">
    <path d="M 158.4 118.152 
Q 158.4 126.165054 158.4 132.501057 
" style="fill: none; stroke: #6b7280; stroke-width: 1.5; stroke-linecap: round"/>
    <path d="M 160.8 127.701057 
L 158.4 132.501057 
L 156 127.701057 
z
" style="fill: #6b7280; stroke: #6b7280; stroke-width: 1.5; stroke-linecap: round"/>
   </g>
   <g id="patch_4">
    <path d="M 158.4 186.264 
Q 158.4 194.277054 158.4 200.613057 
" style="fill: none; stroke: #6b7280; stroke-width: 1.5; stroke-linecap: round"/>
    <path d="M 160.8 195.813057 
L 158.4 200.613057 
L 156 195.813057 
z
" style="fill: #6b7280; stroke: #6b7280; stroke-width: 1.5; stroke-linecap: round"/>
   </g>
   <g id="patch_5">
    <path d="M 158.4 254.376 
Q 158.4 262.389054 158.4 268.725057 
" style="fill: none; stroke: #6b7280; stroke-width: 1.5; stroke-linecap: round"/>
    <path d="M 160.8 263.925057 
L 158.4 268.725057 
L 156 263.925057 
z
" style="fill: #6b7280; stroke: #6b7280; stroke-width: 1.5; stroke-linecap: round"/>
   </g>
   <g id="patch_6">
    <path d="M 158.4 305.46 
Q 158.4 313.473054 158.4 319.809057 
" style="fill: none; stroke: #6b7280; stroke-width: 1.5; stroke-linecap: round"/>
    <path d="M 160.8 315.009057 
L 158.4 319.809057 
L 156 315.009057 
z
" style="fill: #6b7280; stroke: #6b7280; stroke-width: 1.5; stroke-linecap: round"/>
   </g>
   <g id="patch_7">
    <path d="M 158.4 390.6 
Q 158.4 398.613054 158.4 404.949057 
" style="fill: none; stroke: #6b7280; stroke-width: 1.5; stroke-linecap: round"/>
    <path d="M 160.8 400.149057 
L 158.4 404.949057 
L 156 400.149057 
z
" style="fill: #6b7280; stroke: #6b7280; stroke-width: 1.5; stroke-linecap: round"/>
   </g>
   <g id="patch_8">
    <path d="M 158.4 458.712 
Q 158.4 466.725054 158.4 473.061057 
" style="fill: none; stroke: #6b7280; stroke-width: 1.5; stroke-linecap: round"/>
    <path d="M 160.8 468.261057 
L 158.4 473.061057 
L 156 468.261057 
z
" style="fill: #6b7280; stroke: #6b7280; stroke-width: 1.5; stroke-linecap: round"/>
   </g>
   <g id="patch_9">
    <path d="M 158.4 526.824 
Q 158.4 534.837054 158.4 541.173057 
" style="fill: none; stroke: #6b7280; stroke-width: 1.5; stroke-linecap: round"/>
    <path d="M 160.8 536.373057 
L 158.4 541.173057 
L 156 536.373057 
z
" style="fill: #6b7280; stroke: #6b7280; stroke-width: 1.5; stroke-linecap: round"/>
   </g>
   <g id="patch_10">
    <path d="M 40.1328 15.984 
L 276.6672 15.984 
Q 282.24 15.984 282.24 21.5568 
L 282.24 44.4672 
Q 282.24 50.04 276.6672 50.04 
L 40.1328 50.04 
Q 34.56 50.04 34.56 44.4672 
L 34.56 21.5568 
Q 34.56 15.984 40.1328 15.984 
z
" clip-path="url(#p889aebf8c3)" style="fill: #e5e7eb; stroke: #6b7280; stroke-width: 1.5; stroke-linejoin: miter"/>
   </g>
   <g id="patch_11">
    <path d="M 40.1328 67.068 
L 276.6672 67.068 
Q 282.24 67.068 282.24 72.6408 
L 282.24 112.5792 
Q 282.24 118.152 276.6672 118.152 
L 40.1328 118.152 
Q 34.56 118.152 34.56 112.5792 
L 34.56 72.6408 
Q 34.56 67.068 40.1328 67.068 
z
" clip-path="url(#p889aebf8c3)" style="fill: #fbcfe8; stroke: #be185d; stroke-width: 1.5; stroke-linejoin: miter"/>
   </g>
   <g id="patch_12">
    <path d="M 40.1328 135.18 
L 276.6672 135.18 
Q 282.24 135.18 282.24 140.7528 
L 282.24 180.6912 
Q 282.24 186.264 276.6672 186.264 
L 40.1328 186.264 
Q 34.56 186.264 34.56 180.6912 
L 34.56 140.7528 
Q 34.56 135.18 40.1328 135.18 
z
" clip-path="url(#p889aebf8c3)" style="fill: #fbcfe8; stroke: #be185d; stroke-width: 1.5; stroke-linejoin: miter"/>
   </g>
   <g id="patch_13">
    <path d="M 40.1328 203.292 
L 276.6672 203.292 
Q 282.24 203.292 282.24 208.8648 
L 282.24 248.8032 
Q 282.24 254.376 276.6672 254.376 
L 40.1328 254.376 
Q 34.56 254.376 34.56 248.8032 
L 34.56 208.8648 
Q 34.56 203.292 40.1328 203.292 
z
" clip-path="url(#p889aebf8c3)" style="fill: #fbcfe8; stroke: #be185d; stroke-width: 1.5; stroke-linejoin: miter"/>
   </g>
   <g id="patch_14">
    <path d="M 40.1328 271.404 
L 276.6672 271.404 
Q 282.24 271.404 282.24 276.9768 
L 282.24 299.8872 
Q 282.24 305.46 276.6672 305.46 
L 40.1328 305.46 
Q 34.56 305.46 34.56 299.8872 
L 34.56 276.9768 
Q 34.56 271.404 40.1328 271.404 
z
" clip-path="url(#p889aebf8c3)" style="fill: #ede9fe; stroke: #7c3aed; stroke-width: 1.5; stroke-linejoin: miter"/>
   </g>
   <g id="patch_15">
    <path d="M 40.1328 322.488 
L 276.6672 322.488 
Q 282.24 322.488 282.24 328.0608 
L 282.24 385.0272 
Q 282.24 390.6 276.6672 390.6 
L 40.1328 390.6 
Q 34.56 390.6 34.56 385.0272 
L 34.56 328.0608 
Q 34.56 322.488 40.1328 322.488 
z
" clip-path="url(#p889aebf8c3)" style="fill: #bfdbfe; stroke: #2563eb; stroke-width: 1.5; stroke-linejoin: miter"/>
   </g>
   <g id="patch_16">
    <path d="M 40.1328 407.628 
L 276.6672 407.628 
Q 282.24 407.628 282.24 413.2008 
L 282.24 453.1392 
Q 282.24 458.712 276.6672 458.712 
L 40.1328 458.712 
Q 34.56 458.712 34.56 453.1392 
L 34.56 413.2008 
Q 34.56 407.628 40.1328 407.628 
z
" clip-path="url(#p889aebf8c3)" style="fill: #fbcfe8; stroke: #be185d; stroke-width: 1.5; stroke-linejoin: miter"/>
   </g>
   <g id="patch_17">
    <path d="M 40.1328 475.74 
L 276.6672 475.74 
Q 282.24 475.74 282.24 481.3128 
L 282.24 521.2512 
Q 282.24 526.824 276.6672 526.824 
L 40.1328 526.824 
Q 34.56 526.824 34.56 521.2512 
L 34.56 481.3128 
Q 34.56 475.74 40.1328 475.74 
z
" clip-path="url(#p889aebf8c3)" style="fill: #bbf7d0; stroke: #15803d; stroke-width: 1.5; stroke-linejoin: miter"/>
   </g>
   <g id="patch_18">
    <path d="M 40.1328 543.852 
L 276.6672 543.852 
Q 282.24 543.852 282.24 549.4248 
L 282.24 572.3352 
Q 282.24 577.908 276.6672 577.908 
L 40.1328 577.908 
Q 34.56 577.908 34.56 572.3352 
L 34.56 549.4248 
Q 34.56 543.852 40.1328 543.852 
z
" clip-path="url(#p889aebf8c3)" style="fill: #e5e7eb; stroke: #6b7280; stroke-width: 1.5; stroke-linejoin: miter"/>
   </g>
   <g id="text_1">
    <!-- x   [B, T, 2048] -->
    <g style="fill: #374151" transform="translate(119.346562 35.909344) scale(0.105 -0.105)">
     <defs>
      <path id="DejaVuSans-78" d="M 3513 3500 
L 2247 1797 
L 3578 0 
L 2900 0 
L 1881 1375 
L 863 0 
L 184 0 
L 1544 1831 
L 300 3500 
L 978 3500 
L 1906 2253 
L 2834 3500 
L 3513 3500 
z
" transform="scale(0.015625)"/>
      <path id="DejaVuSans-20" transform="scale(0.015625)"/>
      <path id="DejaVuSans-5b" d="M 550 4863 
L 1875 4863 
L 1875 4416 
L 1125 4416 
L 1125 -397 
L 1875 -397 
L 1875 -844 
L 550 -844 
L 550 4863 
z
" transform="scale(0.015625)"/>
      <path id="DejaVuSans-42" d="M 1259 2228 
L 1259 519 
L 2272 519 
Q 2781 519 3026 730 
Q 3272 941 3272 1375 
Q 3272 1813 3026 2020 
Q 2781 2228 2272 2228 
L 1259 2228 
z
M 1259 4147 
L 1259 2741 
L 2194 2741 
Q 2656 2741 2882 2914 
Q 3109 3088 3109 3444 
Q 3109 3797 2882 3972 
Q 2656 4147 2194 4147 
L 1259 4147 
z
M 628 4666 
L 2241 4666 
Q 2963 4666 3353 4366 
Q 3744 4066 3744 3513 
Q 3744 3084 3544 2831 
Q 3344 2578 2956 2516 
Q 3422 2416 3680 2098 
Q 3938 1781 3938 1306 
Q 3938 681 3513 340 
Q 3088 0 2303 0 
L 628 0 
L 628 4666 
z
" transform="scale(0.015625)"/>
      <path id="DejaVuSans-2c" d="M 750 794 
L 1409 794 
L 1409 256 
L 897 -744 
L 494 -744 
L 750 256 
L 750 794 
z
" transform="scale(0.015625)"/>
      <path id="DejaVuSans-54" d="M -19 4666 
L 3928 4666 
L 3928 4134 
L 2272 4134 
L 2272 0 
L 1638 0 
L 1638 4134 
L -19 4134 
L -19 4666 
z
" transform="scale(0.015625)"/>
      <path id="DejaVuSans-32" d="M 1228 531 
L 3431 531 
L 3431 0 
L 469 0 
L 469 531 
Q 828 903 1448 1529 
Q 2069 2156 2228 2338 
Q 2531 2678 2651 2914 
Q 2772 3150 2772 3378 
Q 2772 3750 2511 3984 
Q 2250 4219 1831 4219 
Q 1534 4219 1204 4116 
Q 875 4013 500 3803 
L 500 4441 
Q 881 4594 1212 4672 
Q 1544 4750 1819 4750 
Q 2544 4750 2975 4387 
Q 3406 4025 3406 3419 
Q 3406 3131 3298 2873 
Q 3191 2616 2906 2266 
Q 2828 2175 2409 1742 
Q 1991 1309 1228 531 
z
" transform="scale(0.015625)"/>
      <path id="DejaVuSans-30" d="M 2034 4250 
Q 1547 4250 1301 3770 
Q 1056 3291 1056 2328 
Q 1056 1369 1301 889 
Q 1547 409 2034 409 
Q 2525 409 2770 889 
Q 3016 1369 3016 2328 
Q 3016 3291 2770 3770 
Q 2525 4250 2034 4250 
z
M 2034 4750 
Q 2819 4750 3233 4129 
Q 3647 3509 3647 2328 
Q 3647 1150 3233 529 
Q 2819 -91 2034 -91 
Q 1250 -91 836 529 
Q 422 1150 422 2328 
Q 422 3509 836 4129 
Q 1250 4750 2034 4750 
z
" transform="scale(0.015625)"/>
      <path id="DejaVuSans-34" d="M 2419 4116 
L 825 1625 
L 2419 1625 
L 2419 4116 
z
M 2253 4666 
L 3047 4666 
L 3047 1625 
L 3713 1625 
L 3713 1100 
L 3047 1100 
L 3047 0 
L 2419 0 
L 2419 1100 
L 313 1100 
L 313 1709 
L 2253 4666 
z
" transform="scale(0.015625)"/>
      <path id="DejaVuSans-38" d="M 2034 2216 
Q 1584 2216 1326 1975 
Q 1069 1734 1069 1313 
Q 1069 891 1326 650 
Q 1584 409 2034 409 
Q 2484 409 2743 651 
Q 3003 894 3003 1313 
Q 3003 1734 2745 1975 
Q 2488 2216 2034 2216 
z
M 1403 2484 
Q 997 2584 770 2862 
Q 544 3141 544 3541 
Q 544 4100 942 4425 
Q 1341 4750 2034 4750 
Q 2731 4750 3128 4425 
Q 3525 4100 3525 3541 
Q 3525 3141 3298 2862 
Q 3072 2584 2669 2484 
Q 3125 2378 3379 2068 
Q 3634 1759 3634 1313 
Q 3634 634 3220 271 
Q 2806 -91 2034 -91 
Q 1263 -91 848 271 
Q 434 634 434 1313 
Q 434 1759 690 2068 
Q 947 2378 1403 2484 
z
M 1172 3481 
Q 1172 3119 1398 2916 
Q 1625 2713 2034 2713 
Q 2441 2713 2670 2916 
Q 2900 3119 2900 3481 
Q 2900 3844 2670 4047 
Q 2441 4250 2034 4250 
Q 1625 4250 1398 4047 
Q 1172 3844 1172 3481 
z
" transform="scale(0.015625)"/>
      <path id="DejaVuSans-5d" d="M 1947 4863 
L 1947 -844 
L 622 -844 
L 622 -397 
L 1369 -397 
L 1369 4416 
L 622 4416 
L 622 4863 
L 1947 4863 
z
" transform="scale(0.015625)"/>
     </defs>
     <use xlink:href="#DejaVuSans-78"/>
     <use xlink:href="#DejaVuSans-20" transform="translate(59.179688 0)"/>
     <use xlink:href="#DejaVuSans-20" transform="translate(90.966797 0)"/>
     <use xlink:href="#DejaVuSans-20" transform="translate(122.753906 0)"/>
     <use xlink:href="#DejaVuSans-5b" transform="translate(154.541016 0)"/>
     <use xlink:href="#DejaVuSans-42" transform="translate(193.554688 0)"/>
     <use xlink:href="#DejaVuSans-2c" transform="translate(262.158203 0)"/>
     <use xlink:href="#DejaVuSans-20" transform="translate(293.945312 0)"/>
     <use xlink:href="#DejaVuSans-54" transform="translate(325.732422 0)"/>
     <use xlink:href="#DejaVuSans-2c" transform="translate(386.816406 0)"/>
     <use xlink:href="#DejaVuSans-20" transform="translate(418.603516 0)"/>
     <use xlink:href="#DejaVuSans-32" transform="translate(450.390625 0)"/>
     <use xlink:href="#DejaVuSans-30" transform="translate(514.013672 0)"/>
     <use xlink:href="#DejaVuSans-34" transform="translate(577.636719 0)"/>
     <use xlink:href="#DejaVuSans-38" transform="translate(641.259766 0)"/>
     <use xlink:href="#DejaVuSans-5d" transform="translate(704.882812 0)"/>
    </g>
   </g>
   <g id="text_2">
    <!-- QKV Projection -->
    <g style="fill: #831843" transform="translate(113.807812 84.823828) scale(0.105 -0.105)">
     <defs>
      <path id="DejaVuSans-Bold-51" d="M 2847 -84 
L 2753 -84 
Q 1600 -84 959 553 
Q 319 1191 319 2328 
Q 319 3463 958 4106 
Q 1597 4750 2719 4750 
Q 3853 4750 4486 4112 
Q 5119 3475 5119 2328 
Q 5119 1541 4783 972 
Q 4447 403 3816 116 
L 4756 -934 
L 3609 -934 
L 2847 -84 
z
M 2719 3878 
Q 2169 3878 1866 3472 
Q 1563 3066 1563 2328 
Q 1563 1578 1859 1179 
Q 2156 781 2719 781 
Q 3272 781 3575 1187 
Q 3878 1594 3878 2328 
Q 3878 3066 3575 3472 
Q 3272 3878 2719 3878 
z
" transform="scale(0.015625)"/>
      <path id="DejaVuSans-Bold-4b" d="M 588 4666 
L 1791 4666 
L 1791 2963 
L 3525 4666 
L 4922 4666 
L 2675 2456 
L 5153 0 
L 3647 0 
L 1791 1838 
L 1791 0 
L 588 0 
L 588 4666 
z
" transform="scale(0.015625)"/>
      <path id="DejaVuSans-Bold-56" d="M 31 4666 
L 1241 4666 
L 2478 1222 
L 3713 4666 
L 4922 4666 
L 3194 0 
L 1759 0 
L 31 4666 
z
" transform="scale(0.015625)"/>
      <path id="DejaVuSans-Bold-20" transform="scale(0.015625)"/>
      <path id="DejaVuSans-Bold-50" d="M 588 4666 
L 2584 4666 
Q 3475 4666 3951 4270 
Q 4428 3875 4428 3144 
Q 4428 2409 3951 2014 
Q 3475 1619 2584 1619 
L 1791 1619 
L 1791 0 
L 588 0 
L 588 4666 
z
M 1791 3794 
L 1791 2491 
L 2456 2491 
Q 2806 2491 2997 2661 
Q 3188 2831 3188 3144 
Q 3188 3456 2997 3625 
Q 2806 3794 2456 3794 
L 1791 3794 
z
" transform="scale(0.015625)"/>
      <path id="DejaVuSans-Bold-72" d="M 3138 2547 
Q 2991 2616 2845 2648 
Q 2700 2681 2553 2681 
Q 2122 2681 1889 2404 
Q 1656 2128 1656 1613 
L 1656 0 
L 538 0 
L 538 3500 
L 1656 3500 
L 1656 2925 
Q 1872 3269 2151 3426 
Q 2431 3584 2822 3584 
Q 2878 3584 2943 3579 
Q 3009 3575 3134 3559 
L 3138 2547 
z
" transform="scale(0.015625)"/>
      <path id="DejaVuSans-Bold-6f" d="M 2203 2784 
Q 1831 2784 1636 2517 
Q 1441 2250 1441 1747 
Q 1441 1244 1636 976 
Q 1831 709 2203 709 
Q 2569 709 2762 976 
Q 2956 1244 2956 1747 
Q 2956 2250 2762 2517 
Q 2569 2784 2203 2784 
z
M 2203 3584 
Q 3106 3584 3614 3096 
Q 4122 2609 4122 1747 
Q 4122 884 3614 396 
Q 3106 -91 2203 -91 
Q 1297 -91 786 396 
Q 275 884 275 1747 
Q 275 2609 786 3096 
Q 1297 3584 2203 3584 
z
" transform="scale(0.015625)"/>
      <path id="DejaVuSans-Bold-6a" d="M 538 3500 
L 1656 3500 
L 1656 63 
Q 1656 -641 1318 -1011 
Q 981 -1381 341 -1381 
L -213 -1381 
L -213 -647 
L -19 -647 
Q 300 -647 419 -503 
Q 538 -359 538 63 
L 538 3500 
z
M 538 4863 
L 1656 4863 
L 1656 3950 
L 538 3950 
L 538 4863 
z
" transform="scale(0.015625)"/>
      <path id="DejaVuSans-Bold-65" d="M 4031 1759 
L 4031 1441 
L 1416 1441 
Q 1456 1047 1700 850 
Q 1944 653 2381 653 
Q 2734 653 3104 758 
Q 3475 863 3866 1075 
L 3866 213 
Q 3469 63 3072 -14 
Q 2675 -91 2278 -91 
Q 1328 -91 801 392 
Q 275 875 275 1747 
Q 275 2603 792 3093 
Q 1309 3584 2216 3584 
Q 3041 3584 3536 3087 
Q 4031 2591 4031 1759 
z
M 2881 2131 
Q 2881 2450 2695 2645 
Q 2509 2841 2209 2841 
Q 1884 2841 1681 2658 
Q 1478 2475 1428 2131 
L 2881 2131 
z
" transform="scale(0.015625)"/>
      <path id="DejaVuSans-Bold-63" d="M 3366 3391 
L 3366 2478 
Q 3138 2634 2908 2709 
Q 2678 2784 2431 2784 
Q 1963 2784 1702 2511 
Q 1441 2238 1441 1747 
Q 1441 1256 1702 982 
Q 1963 709 2431 709 
Q 2694 709 2930 787 
Q 3166 866 3366 1019 
L 3366 103 
Q 3103 6 2833 -42 
Q 2563 -91 2291 -91 
Q 1344 -91 809 395 
Q 275 881 275 1747 
Q 275 2613 809 3098 
Q 1344 3584 2291 3584 
Q 2566 3584 2833 3536 
Q 3100 3488 3366 3391 
z
" transform="scale(0.015625)"/>
      <path id="DejaVuSans-Bold-74" d="M 1759 4494 
L 1759 3500 
L 2913 3500 
L 2913 2700 
L 1759 2700 
L 1759 1216 
Q 1759 972 1856 886 
Q 1953 800 2241 800 
L 2816 800 
L 2816 0 
L 1856 0 
Q 1194 0 917 276 
Q 641 553 641 1216 
L 641 2700 
L 84 2700 
L 84 3500 
L 641 3500 
L 641 4494 
L 1759 4494 
z
" transform="scale(0.015625)"/>
      <path id="DejaVuSans-Bold-69" d="M 538 3500 
L 1656 3500 
L 1656 0 
L 538 0 
L 538 3500 
z
M 538 4863 
L 1656 4863 
L 1656 3950 
L 538 3950 
L 538 4863 
z
" transform="scale(0.015625)"/>
      <path id="DejaVuSans-Bold-6e" d="M 4056 2131 
L 4056 0 
L 2931 0 
L 2931 347 
L 2931 1631 
Q 2931 2084 2911 2256 
Q 2891 2428 2841 2509 
Q 2775 2619 2662 2680 
Q 2550 2741 2406 2741 
Q 2056 2741 1856 2470 
Q 1656 2200 1656 1722 
L 1656 0 
L 538 0 
L 538 3500 
L 1656 3500 
L 1656 2988 
Q 1909 3294 2193 3439 
Q 2478 3584 2822 3584 
Q 3428 3584 3742 3212 
Q 4056 2841 4056 2131 
z
" transform="scale(0.015625)"/>
     </defs>
     <use xlink:href="#DejaVuSans-Bold-51"/>
     <use xlink:href="#DejaVuSans-Bold-4b" transform="translate(85.009766 0)"/>
     <use xlink:href="#DejaVuSans-Bold-56" transform="translate(162.5 0)"/>
     <use xlink:href="#DejaVuSans-Bold-20" transform="translate(239.892578 0)"/>
     <use xlink:href="#DejaVuSans-Bold-50" transform="translate(274.707031 0)"/>
     <use xlink:href="#DejaVuSans-Bold-72" transform="translate(347.998047 0)"/>
     <use xlink:href="#DejaVuSans-Bold-6f" transform="translate(397.314453 0)"/>
     <use xlink:href="#DejaVuSans-Bold-6a" transform="translate(466.015625 0)"/>
     <use xlink:href="#DejaVuSans-Bold-65" transform="translate(500.292969 0)"/>
     <use xlink:href="#DejaVuSans-Bold-63" transform="translate(568.115234 0)"/>
     <use xlink:href="#DejaVuSans-Bold-74" transform="translate(627.392578 0)"/>
     <use xlink:href="#DejaVuSans-Bold-69" transform="translate(675.195312 0)"/>
     <use xlink:href="#DejaVuSans-Bold-6f" transform="translate(709.472656 0)"/>
     <use xlink:href="#DejaVuSans-Bold-6e" transform="translate(778.173828 0)"/>
    </g>
   </g>
   <g id="text_3">
    <!-- Linear 2048 → 6144   ·   no bias -->
    <g style="fill: #831843" transform="translate(87.192422 105.735938) scale(0.09 -0.09)">
     <defs>
      <path id="DejaVuSans-4c" d="M 628 4666 
L 1259 4666 
L 1259 531 
L 3531 531 
L 3531 0 
L 628 0 
L 628 4666 
z
" transform="scale(0.015625)"/>
      <path id="DejaVuSans-69" d="M 603 3500 
L 1178 3500 
L 1178 0 
L 603 0 
L 603 3500 
z
M 603 4863 
L 1178 4863 
L 1178 4134 
L 603 4134 
L 603 4863 
z
" transform="scale(0.015625)"/>
      <path id="DejaVuSans-6e" d="M 3513 2113 
L 3513 0 
L 2938 0 
L 2938 2094 
Q 2938 2591 2744 2837 
Q 2550 3084 2163 3084 
Q 1697 3084 1428 2787 
Q 1159 2491 1159 1978 
L 1159 0 
L 581 0 
L 581 3500 
L 1159 3500 
L 1159 2956 
Q 1366 3272 1645 3428 
Q 1925 3584 2291 3584 
Q 2894 3584 3203 3211 
Q 3513 2838 3513 2113 
z
" transform="scale(0.015625)"/>
      <path id="DejaVuSans-65" d="M 3597 1894 
L 3597 1613 
L 953 1613 
Q 991 1019 1311 708 
Q 1631 397 2203 397 
Q 2534 397 2845 478 
Q 3156 559 3463 722 
L 3463 178 
Q 3153 47 2828 -22 
Q 2503 -91 2169 -91 
Q 1331 -91 842 396 
Q 353 884 353 1716 
Q 353 2575 817 3079 
Q 1281 3584 2069 3584 
Q 2775 3584 3186 3129 
Q 3597 2675 3597 1894 
z
M 3022 2063 
Q 3016 2534 2758 2815 
Q 2500 3097 2075 3097 
Q 1594 3097 1305 2825 
Q 1016 2553 972 2059 
L 3022 2063 
z
" transform="scale(0.015625)"/>
      <path id="DejaVuSans-61" d="M 2194 1759 
Q 1497 1759 1228 1600 
Q 959 1441 959 1056 
Q 959 750 1161 570 
Q 1363 391 1709 391 
Q 2188 391 2477 730 
Q 2766 1069 2766 1631 
L 2766 1759 
L 2194 1759 
z
M 3341 1997 
L 3341 0 
L 2766 0 
L 2766 531 
Q 2569 213 2275 61 
Q 1981 -91 1556 -91 
Q 1019 -91 701 211 
Q 384 513 384 1019 
Q 384 1609 779 1909 
Q 1175 2209 1959 2209 
L 2766 2209 
L 2766 2266 
Q 2766 2663 2505 2880 
Q 2244 3097 1772 3097 
Q 1472 3097 1187 3025 
Q 903 2953 641 2809 
L 641 3341 
Q 956 3463 1253 3523 
Q 1550 3584 1831 3584 
Q 2591 3584 2966 3190 
Q 3341 2797 3341 1997 
z
" transform="scale(0.015625)"/>
      <path id="DejaVuSans-72" d="M 2631 2963 
Q 2534 3019 2420 3045 
Q 2306 3072 2169 3072 
Q 1681 3072 1420 2755 
Q 1159 2438 1159 1844 
L 1159 0 
L 581 0 
L 581 3500 
L 1159 3500 
L 1159 2956 
Q 1341 3275 1631 3429 
Q 1922 3584 2338 3584 
Q 2397 3584 2469 3576 
Q 2541 3569 2628 3553 
L 2631 2963 
z
" transform="scale(0.015625)"/>
      <path id="DejaVuSans-2192" d="M 5050 2147 
L 5050 1866 
L 3822 638 
L 3447 1013 
L 4175 1741 
L 366 1741 
L 366 2272 
L 4175 2272 
L 3447 3000 
L 3822 3375 
L 5050 2147 
z
" transform="scale(0.015625)"/>
      <path id="DejaVuSans-36" d="M 2113 2584 
Q 1688 2584 1439 2293 
Q 1191 2003 1191 1497 
Q 1191 994 1439 701 
Q 1688 409 2113 409 
Q 2538 409 2786 701 
Q 3034 994 3034 1497 
Q 3034 2003 2786 2293 
Q 2538 2584 2113 2584 
z
M 3366 4563 
L 3366 3988 
Q 3128 4100 2886 4159 
Q 2644 4219 2406 4219 
Q 1781 4219 1451 3797 
Q 1122 3375 1075 2522 
Q 1259 2794 1537 2939 
Q 1816 3084 2150 3084 
Q 2853 3084 3261 2657 
Q 3669 2231 3669 1497 
Q 3669 778 3244 343 
Q 2819 -91 2113 -91 
Q 1303 -91 875 529 
Q 447 1150 447 2328 
Q 447 3434 972 4092 
Q 1497 4750 2381 4750 
Q 2619 4750 2861 4703 
Q 3103 4656 3366 4563 
z
" transform="scale(0.015625)"/>
      <path id="DejaVuSans-31" d="M 794 531 
L 1825 531 
L 1825 4091 
L 703 3866 
L 703 4441 
L 1819 4666 
L 2450 4666 
L 2450 531 
L 3481 531 
L 3481 0 
L 794 0 
L 794 531 
z
" transform="scale(0.015625)"/>
      <path id="DejaVuSans-b7" d="M 684 2619 
L 1344 2619 
L 1344 1825 
L 684 1825 
L 684 2619 
z
" transform="scale(0.015625)"/>
      <path id="DejaVuSans-6f" d="M 1959 3097 
Q 1497 3097 1228 2736 
Q 959 2375 959 1747 
Q 959 1119 1226 758 
Q 1494 397 1959 397 
Q 2419 397 2687 759 
Q 2956 1122 2956 1747 
Q 2956 2369 2687 2733 
Q 2419 3097 1959 3097 
z
M 1959 3584 
Q 2709 3584 3137 3096 
Q 3566 2609 3566 1747 
Q 3566 888 3137 398 
Q 2709 -91 1959 -91 
Q 1206 -91 779 398 
Q 353 888 353 1747 
Q 353 2609 779 3096 
Q 1206 3584 1959 3584 
z
" transform="scale(0.015625)"/>
      <path id="DejaVuSans-62" d="M 3116 1747 
Q 3116 2381 2855 2742 
Q 2594 3103 2138 3103 
Q 1681 3103 1420 2742 
Q 1159 2381 1159 1747 
Q 1159 1113 1420 752 
Q 1681 391 2138 391 
Q 2594 391 2855 752 
Q 3116 1113 3116 1747 
z
M 1159 2969 
Q 1341 3281 1617 3432 
Q 1894 3584 2278 3584 
Q 2916 3584 3314 3078 
Q 3713 2572 3713 1747 
Q 3713 922 3314 415 
Q 2916 -91 2278 -91 
Q 1894 -91 1617 61 
Q 1341 213 1159 525 
L 1159 0 
L 581 0 
L 581 4863 
L 1159 4863 
L 1159 2969 
z
" transform="scale(0.015625)"/>
      <path id="DejaVuSans-73" d="M 2834 3397 
L 2834 2853 
Q 2591 2978 2328 3040 
Q 2066 3103 1784 3103 
Q 1356 3103 1142 2972 
Q 928 2841 928 2578 
Q 928 2378 1081 2264 
Q 1234 2150 1697 2047 
L 1894 2003 
Q 2506 1872 2764 1633 
Q 3022 1394 3022 966 
Q 3022 478 2636 193 
Q 2250 -91 1575 -91 
Q 1294 -91 989 -36 
Q 684 19 347 128 
L 347 722 
Q 666 556 975 473 
Q 1284 391 1588 391 
Q 1994 391 2212 530 
Q 2431 669 2431 922 
Q 2431 1156 2273 1281 
Q 2116 1406 1581 1522 
L 1381 1569 
Q 847 1681 609 1914 
Q 372 2147 372 2553 
Q 372 3047 722 3315 
Q 1072 3584 1716 3584 
Q 2034 3584 2315 3537 
Q 2597 3491 2834 3397 
z
" transform="scale(0.015625)"/>
     </defs>
     <use xlink:href="#DejaVuSans-4c"/>
     <use xlink:href="#DejaVuSans-69" transform="translate(55.712891 0)"/>
     <use xlink:href="#DejaVuSans-6e" transform="translate(83.496094 0)"/>
     <use xlink:href="#DejaVuSans-65" transform="translate(146.875 0)"/>
     <use xlink:href="#DejaVuSans-61" transform="translate(208.398438 0)"/>
     <use xlink:href="#DejaVuSans-72" transform="translate(269.677734 0)"/>
     <use xlink:href="#DejaVuSans-20" transform="translate(310.791016 0)"/>
     <use xlink:href="#DejaVuSans-32" transform="translate(342.578125 0)"/>
     <use xlink:href="#DejaVuSans-30" transform="translate(406.201172 0)"/>
     <use xlink:href="#DejaVuSans-34" transform="translate(469.824219 0)"/>
     <use xlink:href="#DejaVuSans-38" transform="translate(533.447266 0)"/>
     <use xlink:href="#DejaVuSans-20" transform="translate(597.070312 0)"/>
     <use xlink:href="#DejaVuSans-2192" transform="translate(628.857422 0)"/>
     <use xlink:href="#DejaVuSans-20" transform="translate(712.646484 0)"/>
     <use xlink:href="#DejaVuSans-36" transform="translate(744.433594 0)"/>
     <use xlink:href="#DejaVuSans-31" transform="translate(808.056641 0)"/>
     <use xlink:href="#DejaVuSans-34" transform="translate(871.679688 0)"/>
     <use xlink:href="#DejaVuSans-34" transform="translate(935.302734 0)"/>
     <use xlink:href="#DejaVuSans-20" transform="translate(998.925781 0)"/>
     <use xlink:href="#DejaVuSans-20" transform="translate(1030.712891 0)"/>
     <use xlink:href="#DejaVuSans-20" transform="translate(1062.5 0)"/>
     <use xlink:href="#DejaVuSans-b7" transform="translate(1094.287109 0)"/>
     <use xlink:href="#DejaVuSans-20" transform="translate(1126.074219 0)"/>
     <use xlink:href="#DejaVuSans-20" transform="translate(1157.861328 0)"/>
     <use xlink:href="#DejaVuSans-20" transform="translate(1189.648438 0)"/>
     <use xlink:href="#DejaVuSans-6e" transform="translate(1221.435547 0)"/>
     <use xlink:href="#DejaVuSans-6f" transform="translate(1284.814453 0)"/>
     <use xlink:href="#DejaVuSans-20" transform="translate(1345.996094 0)"/>
     <use xlink:href="#DejaVuSans-62" transform="translate(1377.783203 0)"/>
     <use xlink:href="#DejaVuSans-69" transform="translate(1441.259766 0)"/>
     <use xlink:href="#DejaVuSans-61" transform="translate(1469.042969 0)"/>
     <use xlink:href="#DejaVuSans-73" transform="translate(1530.322266 0)"/>
    </g>
   </g>
   <g id="text_4">
    <!-- Split Q, K, V -->
    <g style="fill: #831843" transform="translate(127.249453 152.976844) scale(0.105 -0.105)">
     <defs>
      <path id="DejaVuSans-53" d="M 3425 4513 
L 3425 3897 
Q 3066 4069 2747 4153 
Q 2428 4238 2131 4238 
Q 1616 4238 1336 4038 
Q 1056 3838 1056 3469 
Q 1056 3159 1242 3001 
Q 1428 2844 1947 2747 
L 2328 2669 
Q 3034 2534 3370 2195 
Q 3706 1856 3706 1288 
Q 3706 609 3251 259 
Q 2797 -91 1919 -91 
Q 1588 -91 1214 -16 
Q 841 59 441 206 
L 441 856 
Q 825 641 1194 531 
Q 1563 422 1919 422 
Q 2459 422 2753 634 
Q 3047 847 3047 1241 
Q 3047 1584 2836 1778 
Q 2625 1972 2144 2069 
L 1759 2144 
Q 1053 2284 737 2584 
Q 422 2884 422 3419 
Q 422 4038 858 4394 
Q 1294 4750 2059 4750 
Q 2388 4750 2728 4690 
Q 3069 4631 3425 4513 
z
" transform="scale(0.015625)"/>
      <path id="DejaVuSans-70" d="M 1159 525 
L 1159 -1331 
L 581 -1331 
L 581 3500 
L 1159 3500 
L 1159 2969 
Q 1341 3281 1617 3432 
Q 1894 3584 2278 3584 
Q 2916 3584 3314 3078 
Q 3713 2572 3713 1747 
Q 3713 922 3314 415 
Q 2916 -91 2278 -91 
Q 1894 -91 1617 61 
Q 1341 213 1159 525 
z
M 3116 1747 
Q 3116 2381 2855 2742 
Q 2594 3103 2138 3103 
Q 1681 3103 1420 2742 
Q 1159 2381 1159 1747 
Q 1159 1113 1420 752 
Q 1681 391 2138 391 
Q 2594 391 2855 752 
Q 3116 1113 3116 1747 
z
" transform="scale(0.015625)"/>
      <path id="DejaVuSans-6c" d="M 603 4863 
L 1178 4863 
L 1178 0 
L 603 0 
L 603 4863 
z
" transform="scale(0.015625)"/>
      <path id="DejaVuSans-74" d="M 1172 4494 
L 1172 3500 
L 2356 3500 
L 2356 3053 
L 1172 3053 
L 1172 1153 
Q 1172 725 1289 603 
Q 1406 481 1766 481 
L 2356 481 
L 2356 0 
L 1766 0 
Q 1100 0 847 248 
Q 594 497 594 1153 
L 594 3053 
L 172 3053 
L 172 3500 
L 594 3500 
L 594 4494 
L 1172 4494 
z
" transform="scale(0.015625)"/>
      <path id="DejaVuSans-51" d="M 2522 4238 
Q 1834 4238 1429 3725 
Q 1025 3213 1025 2328 
Q 1025 1447 1429 934 
Q 1834 422 2522 422 
Q 3209 422 3611 934 
Q 4013 1447 4013 2328 
Q 4013 3213 3611 3725 
Q 3209 4238 2522 4238 
z
M 3406 84 
L 4238 -825 
L 3475 -825 
L 2784 -78 
Q 2681 -84 2626 -87 
Q 2572 -91 2522 -91 
Q 1538 -91 948 567 
Q 359 1225 359 2328 
Q 359 3434 948 4092 
Q 1538 4750 2522 4750 
Q 3503 4750 4090 4092 
Q 4678 3434 4678 2328 
Q 4678 1516 4351 937 
Q 4025 359 3406 84 
z
" transform="scale(0.015625)"/>
      <path id="DejaVuSans-4b" d="M 628 4666 
L 1259 4666 
L 1259 2694 
L 3353 4666 
L 4166 4666 
L 1850 2491 
L 4331 0 
L 3500 0 
L 1259 2247 
L 1259 0 
L 628 0 
L 628 4666 
z
" transform="scale(0.015625)"/>
      <path id="DejaVuSans-56" d="M 1831 0 
L 50 4666 
L 709 4666 
L 2188 738 
L 3669 4666 
L 4325 4666 
L 2547 0 
L 1831 0 
z
" transform="scale(0.015625)"/>
     </defs>
     <use xlink:href="#DejaVuSans-53"/>
     <use xlink:href="#DejaVuSans-70" transform="translate(63.476562 0)"/>
     <use xlink:href="#DejaVuSans-6c" transform="translate(126.953125 0)"/>
     <use xlink:href="#DejaVuSans-69" transform="translate(154.736328 0)"/>
     <use xlink:href="#DejaVuSans-74" transform="translate(182.519531 0)"/>
     <use xlink:href="#DejaVuSans-20" transform="translate(221.728516 0)"/>
     <use xlink:href="#DejaVuSans-51" transform="translate(253.515625 0)"/>
     <use xlink:href="#DejaVuSans-2c" transform="translate(332.226562 0)"/>
     <use xlink:href="#DejaVuSans-20" transform="translate(364.013672 0)"/>
     <use xlink:href="#DejaVuSans-4b" transform="translate(395.800781 0)"/>
     <use xlink:href="#DejaVuSans-2c" transform="translate(461.376953 0)"/>
     <use xlink:href="#DejaVuSans-20" transform="translate(493.164062 0)"/>
     <use xlink:href="#DejaVuSans-56" transform="translate(524.951172 0)"/>
    </g>
   </g>
   <g id="text_5">
    <!-- each   [B, T, 2048] -->
    <g style="fill: #831843" transform="translate(116.736328 173.847938) scale(0.09 -0.09)">
     <defs>
      <path id="DejaVuSans-63" d="M 3122 3366 
L 3122 2828 
Q 2878 2963 2633 3030 
Q 2388 3097 2138 3097 
Q 1578 3097 1268 2742 
Q 959 2388 959 1747 
Q 959 1106 1268 751 
Q 1578 397 2138 397 
Q 2388 397 2633 464 
Q 2878 531 3122 666 
L 3122 134 
Q 2881 22 2623 -34 
Q 2366 -91 2075 -91 
Q 1284 -91 818 406 
Q 353 903 353 1747 
Q 353 2603 823 3093 
Q 1294 3584 2113 3584 
Q 2378 3584 2631 3529 
Q 2884 3475 3122 3366 
z
" transform="scale(0.015625)"/>
      <path id="DejaVuSans-68" d="M 3513 2113 
L 3513 0 
L 2938 0 
L 2938 2094 
Q 2938 2591 2744 2837 
Q 2550 3084 2163 3084 
Q 1697 3084 1428 2787 
Q 1159 2491 1159 1978 
L 1159 0 
L 581 0 
L 581 4863 
L 1159 4863 
L 1159 2956 
Q 1366 3272 1645 3428 
Q 1925 3584 2291 3584 
Q 2894 3584 3203 3211 
Q 3513 2838 3513 2113 
z
" transform="scale(0.015625)"/>
     </defs>
     <use xlink:href="#DejaVuSans-65"/>
     <use xlink:href="#DejaVuSans-61" transform="translate(61.523438 0)"/>
     <use xlink:href="#DejaVuSans-63" transform="translate(122.802734 0)"/>
     <use xlink:href="#DejaVuSans-68" transform="translate(177.783203 0)"/>
     <use xlink:href="#DejaVuSans-20" transform="translate(241.162109 0)"/>
     <use xlink:href="#DejaVuSans-20" transform="translate(272.949219 0)"/>
     <use xlink:href="#DejaVuSans-20" transform="translate(304.736328 0)"/>
     <use xlink:href="#DejaVuSans-5b" transform="translate(336.523438 0)"/>
     <use xlink:href="#DejaVuSans-42" transform="translate(375.537109 0)"/>
     <use xlink:href="#DejaVuSans-2c" transform="translate(444.140625 0)"/>
     <use xlink:href="#DejaVuSans-20" transform="translate(475.927734 0)"/>
     <use xlink:href="#DejaVuSans-54" transform="translate(507.714844 0)"/>
     <use xlink:href="#DejaVuSans-2c" transform="translate(568.798828 0)"/>
     <use xlink:href="#DejaVuSans-20" transform="translate(600.585938 0)"/>
     <use xlink:href="#DejaVuSans-32" transform="translate(632.373047 0)"/>
     <use xlink:href="#DejaVuSans-30" transform="translate(695.996094 0)"/>
     <use xlink:href="#DejaVuSans-34" transform="translate(759.619141 0)"/>
     <use xlink:href="#DejaVuSans-38" transform="translate(823.242188 0)"/>
     <use xlink:href="#DejaVuSans-5d" transform="translate(886.865234 0)"/>
    </g>
   </g>
   <g id="text_6">
    <!-- Reshape + Transpose -->
    <g style="fill: #831843" transform="translate(101.798437 221.088844) scale(0.105 -0.105)">
     <defs>
      <path id="DejaVuSans-52" d="M 2841 2188 
Q 3044 2119 3236 1894 
Q 3428 1669 3622 1275 
L 4263 0 
L 3584 0 
L 2988 1197 
Q 2756 1666 2539 1819 
Q 2322 1972 1947 1972 
L 1259 1972 
L 1259 0 
L 628 0 
L 628 4666 
L 2053 4666 
Q 2853 4666 3247 4331 
Q 3641 3997 3641 3322 
Q 3641 2881 3436 2590 
Q 3231 2300 2841 2188 
z
M 1259 4147 
L 1259 2491 
L 2053 2491 
Q 2509 2491 2742 2702 
Q 2975 2913 2975 3322 
Q 2975 3731 2742 3939 
Q 2509 4147 2053 4147 
L 1259 4147 
z
" transform="scale(0.015625)"/>
      <path id="DejaVuSans-2b" d="M 2944 4013 
L 2944 2272 
L 4684 2272 
L 4684 1741 
L 2944 1741 
L 2944 0 
L 2419 0 
L 2419 1741 
L 678 1741 
L 678 2272 
L 2419 2272 
L 2419 4013 
L 2944 4013 
z
" transform="scale(0.015625)"/>
     </defs>
     <use xlink:href="#DejaVuSans-52"/>
     <use xlink:href="#DejaVuSans-65" transform="translate(64.982422 0)"/>
     <use xlink:href="#DejaVuSans-73" transform="translate(126.505859 0)"/>
     <use xlink:href="#DejaVuSans-68" transform="translate(178.605469 0)"/>
     <use xlink:href="#DejaVuSans-61" transform="translate(241.984375 0)"/>
     <use xlink:href="#DejaVuSans-70" transform="translate(303.263672 0)"/>
     <use xlink:href="#DejaVuSans-65" transform="translate(366.740234 0)"/>
     <use xlink:href="#DejaVuSans-20" transform="translate(428.263672 0)"/>
     <use xlink:href="#DejaVuSans-2b" transform="translate(460.050781 0)"/>
     <use xlink:href="#DejaVuSans-20" transform="translate(543.839844 0)"/>
     <use xlink:href="#DejaVuSans-54" transform="translate(575.626953 0)"/>
     <use xlink:href="#DejaVuSans-72" transform="translate(621.960938 0)"/>
     <use xlink:href="#DejaVuSans-61" transform="translate(663.074219 0)"/>
     <use xlink:href="#DejaVuSans-6e" transform="translate(724.353516 0)"/>
     <use xlink:href="#DejaVuSans-73" transform="translate(787.732422 0)"/>
     <use xlink:href="#DejaVuSans-70" transform="translate(839.832031 0)"/>
     <use xlink:href="#DejaVuSans-6f" transform="translate(903.308594 0)"/>
     <use xlink:href="#DejaVuSans-73" transform="translate(964.490234 0)"/>
     <use xlink:href="#DejaVuSans-65" transform="translate(1016.589844 0)"/>
    </g>
   </g>
   <g id="text_7">
    <!-- [B, 32, T, 64] -->
    <g style="fill: #831843" transform="translate(129.019219 241.959938) scale(0.09 -0.09)">
     <defs>
      <path id="DejaVuSans-33" d="M 2597 2516 
Q 3050 2419 3304 2112 
Q 3559 1806 3559 1356 
Q 3559 666 3084 287 
Q 2609 -91 1734 -91 
Q 1441 -91 1130 -33 
Q 819 25 488 141 
L 488 750 
Q 750 597 1062 519 
Q 1375 441 1716 441 
Q 2309 441 2620 675 
Q 2931 909 2931 1356 
Q 2931 1769 2642 2001 
Q 2353 2234 1838 2234 
L 1294 2234 
L 1294 2753 
L 1863 2753 
Q 2328 2753 2575 2939 
Q 2822 3125 2822 3475 
Q 2822 3834 2567 4026 
Q 2313 4219 1838 4219 
Q 1578 4219 1281 4162 
Q 984 4106 628 3988 
L 628 4550 
Q 988 4650 1302 4700 
Q 1616 4750 1894 4750 
Q 2613 4750 3031 4423 
Q 3450 4097 3450 3541 
Q 3450 3153 3228 2886 
Q 3006 2619 2597 2516 
z
" transform="scale(0.015625)"/>
     </defs>
     <use xlink:href="#DejaVuSans-5b"/>
     <use xlink:href="#DejaVuSans-42" transform="translate(39.013672 0)"/>
     <use xlink:href="#DejaVuSans-2c" transform="translate(107.617188 0)"/>
     <use xlink:href="#DejaVuSans-20" transform="translate(139.404297 0)"/>
     <use xlink:href="#DejaVuSans-33" transform="translate(171.191406 0)"/>
     <use xlink:href="#DejaVuSans-32" transform="translate(234.814453 0)"/>
     <use xlink:href="#DejaVuSans-2c" transform="translate(298.4375 0)"/>
     <use xlink:href="#DejaVuSans-20" transform="translate(330.224609 0)"/>
     <use xlink:href="#DejaVuSans-54" transform="translate(362.011719 0)"/>
     <use xlink:href="#DejaVuSans-2c" transform="translate(423.095703 0)"/>
     <use xlink:href="#DejaVuSans-20" transform="translate(454.882812 0)"/>
     <use xlink:href="#DejaVuSans-36" transform="translate(486.669922 0)"/>
     <use xlink:href="#DejaVuSans-34" transform="translate(550.292969 0)"/>
     <use xlink:href="#DejaVuSans-5d" transform="translate(613.916016 0)"/>
    </g>
   </g>
   <g id="text_8">
    <!-- Apply RoPE to Q and K -->
    <g style="fill: #4c1d95" transform="translate(99.403945 291.329344) scale(0.105 -0.105)">
     <defs>
      <path id="DejaVuSans-41" d="M 2188 4044 
L 1331 1722 
L 3047 1722 
L 2188 4044 
z
M 1831 4666 
L 2547 4666 
L 4325 0 
L 3669 0 
L 3244 1197 
L 1141 1197 
L 716 0 
L 50 0 
L 1831 4666 
z
" transform="scale(0.015625)"/>
      <path id="DejaVuSans-79" d="M 2059 -325 
Q 1816 -950 1584 -1140 
Q 1353 -1331 966 -1331 
L 506 -1331 
L 506 -850 
L 844 -850 
Q 1081 -850 1212 -737 
Q 1344 -625 1503 -206 
L 1606 56 
L 191 3500 
L 800 3500 
L 1894 763 
L 2988 3500 
L 3597 3500 
L 2059 -325 
z
" transform="scale(0.015625)"/>
      <path id="DejaVuSans-50" d="M 1259 4147 
L 1259 2394 
L 2053 2394 
Q 2494 2394 2734 2622 
Q 2975 2850 2975 3272 
Q 2975 3691 2734 3919 
Q 2494 4147 2053 4147 
L 1259 4147 
z
M 628 4666 
L 2053 4666 
Q 2838 4666 3239 4311 
Q 3641 3956 3641 3272 
Q 3641 2581 3239 2228 
Q 2838 1875 2053 1875 
L 1259 1875 
L 1259 0 
L 628 0 
L 628 4666 
z
" transform="scale(0.015625)"/>
      <path id="DejaVuSans-45" d="M 628 4666 
L 3578 4666 
L 3578 4134 
L 1259 4134 
L 1259 2753 
L 3481 2753 
L 3481 2222 
L 1259 2222 
L 1259 531 
L 3634 531 
L 3634 0 
L 628 0 
L 628 4666 
z
" transform="scale(0.015625)"/>
      <path id="DejaVuSans-64" d="M 2906 2969 
L 2906 4863 
L 3481 4863 
L 3481 0 
L 2906 0 
L 2906 525 
Q 2725 213 2448 61 
Q 2172 -91 1784 -91 
Q 1150 -91 751 415 
Q 353 922 353 1747 
Q 353 2572 751 3078 
Q 1150 3584 1784 3584 
Q 2172 3584 2448 3432 
Q 2725 3281 2906 2969 
z
M 947 1747 
Q 947 1113 1208 752 
Q 1469 391 1925 391 
Q 2381 391 2643 752 
Q 2906 1113 2906 1747 
Q 2906 2381 2643 2742 
Q 2381 3103 1925 3103 
Q 1469 3103 1208 2742 
Q 947 2381 947 1747 
z
" transform="scale(0.015625)"/>
     </defs>
     <use xlink:href="#DejaVuSans-41"/>
     <use xlink:href="#DejaVuSans-70" transform="translate(68.408203 0)"/>
     <use xlink:href="#DejaVuSans-70" transform="translate(131.884766 0)"/>
     <use xlink:href="#DejaVuSans-6c" transform="translate(195.361328 0)"/>
     <use xlink:href="#DejaVuSans-79" transform="translate(223.144531 0)"/>
     <use xlink:href="#DejaVuSans-20" transform="translate(282.324219 0)"/>
     <use xlink:href="#DejaVuSans-52" transform="translate(314.111328 0)"/>
     <use xlink:href="#DejaVuSans-6f" transform="translate(379.09375 0)"/>
     <use xlink:href="#DejaVuSans-50" transform="translate(440.275391 0)"/>
     <use xlink:href="#DejaVuSans-45" transform="translate(500.578125 0)"/>
     <use xlink:href="#DejaVuSans-20" transform="translate(563.761719 0)"/>
     <use xlink:href="#DejaVuSans-74" transform="translate(595.548828 0)"/>
     <use xlink:href="#DejaVuSans-6f" transform="translate(634.757812 0)"/>
     <use xlink:href="#DejaVuSans-20" transform="translate(695.939453 0)"/>
     <use xlink:href="#DejaVuSans-51" transform="translate(727.726562 0)"/>
     <use xlink:href="#DejaVuSans-20" transform="translate(806.4375 0)"/>
     <use xlink:href="#DejaVuSans-61" transform="translate(838.224609 0)"/>
     <use xlink:href="#DejaVuSans-6e" transform="translate(899.503906 0)"/>
     <use xlink:href="#DejaVuSans-64" transform="translate(962.882812 0)"/>
     <use xlink:href="#DejaVuSans-20" transform="translate(1026.359375 0)"/>
     <use xlink:href="#DejaVuSans-4b" transform="translate(1058.146484 0)"/>
    </g>
   </g>
   <g id="text_9">
    <!-- Scaled Dot-Product Attention -->
    <g style="fill: #1e3a8a" transform="translate(71.342695 339.408403) scale(0.105 -0.105)">
     <defs>
      <path id="DejaVuSans-Bold-53" d="M 3834 4519 
L 3834 3531 
Q 3450 3703 3084 3790 
Q 2719 3878 2394 3878 
Q 1963 3878 1756 3759 
Q 1550 3641 1550 3391 
Q 1550 3203 1689 3098 
Q 1828 2994 2194 2919 
L 2706 2816 
Q 3484 2659 3812 2340 
Q 4141 2022 4141 1434 
Q 4141 663 3683 286 
Q 3225 -91 2284 -91 
Q 1841 -91 1394 -6 
Q 947 78 500 244 
L 500 1259 
Q 947 1022 1364 901 
Q 1781 781 2169 781 
Q 2563 781 2772 912 
Q 2981 1044 2981 1288 
Q 2981 1506 2839 1625 
Q 2697 1744 2272 1838 
L 1806 1941 
Q 1106 2091 782 2419 
Q 459 2747 459 3303 
Q 459 4000 909 4375 
Q 1359 4750 2203 4750 
Q 2588 4750 2994 4692 
Q 3400 4634 3834 4519 
z
" transform="scale(0.015625)"/>
      <path id="DejaVuSans-Bold-61" d="M 2106 1575 
Q 1756 1575 1579 1456 
Q 1403 1338 1403 1106 
Q 1403 894 1545 773 
Q 1688 653 1941 653 
Q 2256 653 2472 879 
Q 2688 1106 2688 1447 
L 2688 1575 
L 2106 1575 
z
M 3816 1997 
L 3816 0 
L 2688 0 
L 2688 519 
Q 2463 200 2181 54 
Q 1900 -91 1497 -91 
Q 953 -91 614 226 
Q 275 544 275 1050 
Q 275 1666 698 1953 
Q 1122 2241 2028 2241 
L 2688 2241 
L 2688 2328 
Q 2688 2594 2478 2717 
Q 2269 2841 1825 2841 
Q 1466 2841 1156 2769 
Q 847 2697 581 2553 
L 581 3406 
Q 941 3494 1303 3539 
Q 1666 3584 2028 3584 
Q 2975 3584 3395 3211 
Q 3816 2838 3816 1997 
z
" transform="scale(0.015625)"/>
      <path id="DejaVuSans-Bold-6c" d="M 538 4863 
L 1656 4863 
L 1656 0 
L 538 0 
L 538 4863 
z
" transform="scale(0.015625)"/>
      <path id="DejaVuSans-Bold-64" d="M 2919 2988 
L 2919 4863 
L 4044 4863 
L 4044 0 
L 2919 0 
L 2919 506 
Q 2688 197 2409 53 
Q 2131 -91 1766 -91 
Q 1119 -91 703 423 
Q 288 938 288 1747 
Q 288 2556 703 3070 
Q 1119 3584 1766 3584 
Q 2128 3584 2408 3439 
Q 2688 3294 2919 2988 
z
M 2181 722 
Q 2541 722 2730 984 
Q 2919 1247 2919 1747 
Q 2919 2247 2730 2509 
Q 2541 2772 2181 2772 
Q 1825 2772 1636 2509 
Q 1447 2247 1447 1747 
Q 1447 1247 1636 984 
Q 1825 722 2181 722 
z
" transform="scale(0.015625)"/>
      <path id="DejaVuSans-Bold-44" d="M 1791 3756 
L 1791 909 
L 2222 909 
Q 2959 909 3348 1275 
Q 3738 1641 3738 2338 
Q 3738 3031 3350 3393 
Q 2963 3756 2222 3756 
L 1791 3756 
z
M 588 4666 
L 1856 4666 
Q 2919 4666 3439 4514 
Q 3959 4363 4331 4000 
Q 4659 3684 4818 3271 
Q 4978 2859 4978 2338 
Q 4978 1809 4818 1395 
Q 4659 981 4331 666 
Q 3956 303 3431 151 
Q 2906 0 1856 0 
L 588 0 
L 588 4666 
z
" transform="scale(0.015625)"/>
      <path id="DejaVuSans-Bold-2d" d="M 347 2297 
L 2309 2297 
L 2309 1388 
L 347 1388 
L 347 2297 
z
" transform="scale(0.015625)"/>
      <path id="DejaVuSans-Bold-75" d="M 500 1363 
L 500 3500 
L 1625 3500 
L 1625 3150 
Q 1625 2866 1622 2436 
Q 1619 2006 1619 1863 
Q 1619 1441 1641 1255 
Q 1663 1069 1716 984 
Q 1784 875 1895 815 
Q 2006 756 2150 756 
Q 2500 756 2700 1025 
Q 2900 1294 2900 1772 
L 2900 3500 
L 4019 3500 
L 4019 0 
L 2900 0 
L 2900 506 
Q 2647 200 2364 54 
Q 2081 -91 1741 -91 
Q 1134 -91 817 281 
Q 500 653 500 1363 
z
" transform="scale(0.015625)"/>
      <path id="DejaVuSans-Bold-41" d="M 3419 850 
L 1538 850 
L 1241 0 
L 31 0 
L 1759 4666 
L 3194 4666 
L 4922 0 
L 3713 0 
L 3419 850 
z
M 1838 1716 
L 3116 1716 
L 2478 3572 
L 1838 1716 
z
" transform="scale(0.015625)"/>
     </defs>
     <use xlink:href="#DejaVuSans-Bold-53"/>
     <use xlink:href="#DejaVuSans-Bold-63" transform="translate(72.021484 0)"/>
     <use xlink:href="#DejaVuSans-Bold-61" transform="translate(131.298828 0)"/>
     <use xlink:href="#DejaVuSans-Bold-6c" transform="translate(198.779297 0)"/>
     <use xlink:href="#DejaVuSans-Bold-65" transform="translate(233.056641 0)"/>
     <use xlink:href="#DejaVuSans-Bold-64" transform="translate(300.878906 0)"/>
     <use xlink:href="#DejaVuSans-Bold-20" transform="translate(372.460938 0)"/>
     <use xlink:href="#DejaVuSans-Bold-44" transform="translate(407.275391 0)"/>
     <use xlink:href="#DejaVuSans-Bold-6f" transform="translate(490.283203 0)"/>
     <use xlink:href="#DejaVuSans-Bold-74" transform="translate(558.984375 0)"/>
     <use xlink:href="#DejaVuSans-Bold-2d" transform="translate(606.787109 0)"/>
     <use xlink:href="#DejaVuSans-Bold-50" transform="translate(648.291016 0)"/>
     <use xlink:href="#DejaVuSans-Bold-72" transform="translate(721.582031 0)"/>
     <use xlink:href="#DejaVuSans-Bold-6f" transform="translate(770.898438 0)"/>
     <use xlink:href="#DejaVuSans-Bold-64" transform="translate(839.599609 0)"/>
     <use xlink:href="#DejaVuSans-Bold-75" transform="translate(911.181641 0)"/>
     <use xlink:href="#DejaVuSans-Bold-63" transform="translate(982.373047 0)"/>
     <use xlink:href="#DejaVuSans-Bold-74" transform="translate(1041.650391 0)"/>
     <use xlink:href="#DejaVuSans-Bold-20" transform="translate(1089.453125 0)"/>
     <use xlink:href="#DejaVuSans-Bold-41" transform="translate(1124.267578 0)"/>
     <use xlink:href="#DejaVuSans-Bold-74" transform="translate(1201.660156 0)"/>
     <use xlink:href="#DejaVuSans-Bold-74" transform="translate(1249.462891 0)"/>
     <use xlink:href="#DejaVuSans-Bold-65" transform="translate(1297.265625 0)"/>
     <use xlink:href="#DejaVuSans-Bold-6e" transform="translate(1365.087891 0)"/>
     <use xlink:href="#DejaVuSans-Bold-74" transform="translate(1436.279297 0)"/>
     <use xlink:href="#DejaVuSans-Bold-69" transform="translate(1484.082031 0)"/>
     <use xlink:href="#DejaVuSans-Bold-6f" transform="translate(1518.359375 0)"/>
     <use xlink:href="#DejaVuSans-Bold-6e" transform="translate(1587.060547 0)"/>
    </g>
   </g>
   <g id="text_10">
    <!-- softmax(QKᵀ / √64) · V -->
    <g style="fill: #1e3a8a" transform="translate(108.153281 359.027438) scale(0.09 -0.09)">
     <defs>
      <path id="DejaVuSans-66" d="M 2375 4863 
L 2375 4384 
L 1825 4384 
Q 1516 4384 1395 4259 
Q 1275 4134 1275 3809 
L 1275 3500 
L 2222 3500 
L 2222 3053 
L 1275 3053 
L 1275 0 
L 697 0 
L 697 3053 
L 147 3053 
L 147 3500 
L 697 3500 
L 697 3744 
Q 697 4328 969 4595 
Q 1241 4863 1831 4863 
L 2375 4863 
z
" transform="scale(0.015625)"/>
      <path id="DejaVuSans-6d" d="M 3328 2828 
Q 3544 3216 3844 3400 
Q 4144 3584 4550 3584 
Q 5097 3584 5394 3201 
Q 5691 2819 5691 2113 
L 5691 0 
L 5113 0 
L 5113 2094 
Q 5113 2597 4934 2840 
Q 4756 3084 4391 3084 
Q 3944 3084 3684 2787 
Q 3425 2491 3425 1978 
L 3425 0 
L 2847 0 
L 2847 2094 
Q 2847 2600 2669 2842 
Q 2491 3084 2119 3084 
Q 1678 3084 1418 2786 
Q 1159 2488 1159 1978 
L 1159 0 
L 581 0 
L 581 3500 
L 1159 3500 
L 1159 2956 
Q 1356 3278 1631 3431 
Q 1906 3584 2284 3584 
Q 2666 3584 2933 3390 
Q 3200 3197 3328 2828 
z
" transform="scale(0.015625)"/>
      <path id="DejaVuSans-28" d="M 1984 4856 
Q 1566 4138 1362 3434 
Q 1159 2731 1159 2009 
Q 1159 1288 1364 580 
Q 1569 -128 1984 -844 
L 1484 -844 
Q 1016 -109 783 600 
Q 550 1309 550 2009 
Q 550 2706 781 3412 
Q 1013 4119 1484 4856 
L 1984 4856 
z
" transform="scale(0.015625)"/>
      <path id="DejaVuSans-1d40" d="M -13 4700 
L 2475 4700 
L 2475 4403 
L 1431 4403 
L 1431 2088 
L 1031 2088 
L 1031 4403 
L -13 4403 
L -13 4700 
z
" transform="scale(0.015625)"/>
      <path id="DejaVuSans-2f" d="M 1625 4666 
L 2156 4666 
L 531 -594 
L 0 -594 
L 1625 4666 
z
" transform="scale(0.015625)"/>
      <path id="DejaVuSans-221a" d="M 3488 5191 
L 4078 5191 
L 4078 4891 
L 3719 4891 
L 1863 -128 
L 1656 -128 
L 659 2631 
L 269 2491 
L 191 2741 
L 1075 3047 
L 1875 831 
L 3488 5191 
z
" transform="scale(0.015625)"/>
      <path id="DejaVuSans-29" d="M 513 4856 
L 1013 4856 
Q 1481 4119 1714 3412 
Q 1947 2706 1947 2009 
Q 1947 1309 1714 600 
Q 1481 -109 1013 -844 
L 513 -844 
Q 928 -128 1133 580 
Q 1338 1288 1338 2009 
Q 1338 2731 1133 3434 
Q 928 4138 513 4856 
z
" transform="scale(0.015625)"/>
     </defs>
     <use xlink:href="#DejaVuSans-73"/>
     <use xlink:href="#DejaVuSans-6f" transform="translate(52.099609 0)"/>
     <use xlink:href="#DejaVuSans-66" transform="translate(113.28125 0)"/>
     <use xlink:href="#DejaVuSans-74" transform="translate(146.736328 0)"/>
     <use xlink:href="#DejaVuSans-6d" transform="translate(185.945312 0)"/>
     <use xlink:href="#DejaVuSans-61" transform="translate(283.357422 0)"/>
     <use xlink:href="#DejaVuSans-78" transform="translate(344.636719 0)"/>
     <use xlink:href="#DejaVuSans-28" transform="translate(403.816406 0)"/>
     <use xlink:href="#DejaVuSans-51" transform="translate(442.830078 0)"/>
     <use xlink:href="#DejaVuSans-4b" transform="translate(521.541016 0)"/>
     <use xlink:href="#DejaVuSans-1d40" transform="translate(587.117188 0)"/>
     <use xlink:href="#DejaVuSans-20" transform="translate(625.59375 0)"/>
     <use xlink:href="#DejaVuSans-2f" transform="translate(657.380859 0)"/>
     <use xlink:href="#DejaVuSans-20" transform="translate(691.072266 0)"/>
     <use xlink:href="#DejaVuSans-221a" transform="translate(722.859375 0)"/>
     <use xlink:href="#DejaVuSans-36" transform="translate(786.580078 0)"/>
     <use xlink:href="#DejaVuSans-34" transform="translate(850.203125 0)"/>
     <use xlink:href="#DejaVuSans-29" transform="translate(913.826172 0)"/>
     <use xlink:href="#DejaVuSans-20" transform="translate(952.839844 0)"/>
     <use xlink:href="#DejaVuSans-b7" transform="translate(984.626953 0)"/>
     <use xlink:href="#DejaVuSans-20" transform="translate(1016.414062 0)"/>
     <use xlink:href="#DejaVuSans-56" transform="translate(1048.201172 0)"/>
    </g>
   </g>
   <g id="text_11">
    <!-- FlashAttention-2 on CUDA -->
    <g style="fill: #1e3a8a" transform="translate(99.987187 379.060379) scale(0.09 -0.09)">
     <defs>
      <path id="DejaVuSans-46" d="M 628 4666 
L 3309 4666 
L 3309 4134 
L 1259 4134 
L 1259 2759 
L 3109 2759 
L 3109 2228 
L 1259 2228 
L 1259 0 
L 628 0 
L 628 4666 
z
" transform="scale(0.015625)"/>
      <path id="DejaVuSans-2d" d="M 313 2009 
L 1997 2009 
L 1997 1497 
L 313 1497 
L 313 2009 
z
" transform="scale(0.015625)"/>
      <path id="DejaVuSans-43" d="M 4122 4306 
L 4122 3641 
Q 3803 3938 3442 4084 
Q 3081 4231 2675 4231 
Q 1875 4231 1450 3742 
Q 1025 3253 1025 2328 
Q 1025 1406 1450 917 
Q 1875 428 2675 428 
Q 3081 428 3442 575 
Q 3803 722 4122 1019 
L 4122 359 
Q 3791 134 3420 21 
Q 3050 -91 2638 -91 
Q 1578 -91 968 557 
Q 359 1206 359 2328 
Q 359 3453 968 4101 
Q 1578 4750 2638 4750 
Q 3056 4750 3426 4639 
Q 3797 4528 4122 4306 
z
" transform="scale(0.015625)"/>
      <path id="DejaVuSans-55" d="M 556 4666 
L 1191 4666 
L 1191 1831 
Q 1191 1081 1462 751 
Q 1734 422 2344 422 
Q 2950 422 3222 751 
Q 3494 1081 3494 1831 
L 3494 4666 
L 4128 4666 
L 4128 1753 
Q 4128 841 3676 375 
Q 3225 -91 2344 -91 
Q 1459 -91 1007 375 
Q 556 841 556 1753 
L 556 4666 
z
" transform="scale(0.015625)"/>
      <path id="DejaVuSans-44" d="M 1259 4147 
L 1259 519 
L 2022 519 
Q 2988 519 3436 956 
Q 3884 1394 3884 2338 
Q 3884 3275 3436 3711 
Q 2988 4147 2022 4147 
L 1259 4147 
z
M 628 4666 
L 1925 4666 
Q 3281 4666 3915 4102 
Q 4550 3538 4550 2338 
Q 4550 1131 3912 565 
Q 3275 0 1925 0 
L 628 0 
L 628 4666 
z
" transform="scale(0.015625)"/>
     </defs>
     <use xlink:href="#DejaVuSans-46"/>
     <use xlink:href="#DejaVuSans-6c" transform="translate(57.519531 0)"/>
     <use xlink:href="#DejaVuSans-61" transform="translate(85.302734 0)"/>
     <use xlink:href="#DejaVuSans-73" transform="translate(146.582031 0)"/>
     <use xlink:href="#DejaVuSans-68" transform="translate(198.681641 0)"/>
     <use xlink:href="#DejaVuSans-41" transform="translate(262.060547 0)"/>
     <use xlink:href="#DejaVuSans-74" transform="translate(328.71875 0)"/>
     <use xlink:href="#DejaVuSans-74" transform="translate(367.927734 0)"/>
     <use xlink:href="#DejaVuSans-65" transform="translate(407.136719 0)"/>
     <use xlink:href="#DejaVuSans-6e" transform="translate(468.660156 0)"/>
     <use xlink:href="#DejaVuSans-74" transform="translate(532.039062 0)"/>
     <use xlink:href="#DejaVuSans-69" transform="translate(571.248047 0)"/>
     <use xlink:href="#DejaVuSans-6f" transform="translate(599.03125 0)"/>
     <use xlink:href="#DejaVuSans-6e" transform="translate(660.212891 0)"/>
     <use xlink:href="#DejaVuSans-2d" transform="translate(723.591797 0)"/>
     <use xlink:href="#DejaVuSans-32" transform="translate(759.675781 0)"/>
     <use xlink:href="#DejaVuSans-20" transform="translate(823.298828 0)"/>
     <use xlink:href="#DejaVuSans-6f" transform="translate(855.085938 0)"/>
     <use xlink:href="#DejaVuSans-6e" transform="translate(916.267578 0)"/>
     <use xlink:href="#DejaVuSans-20" transform="translate(979.646484 0)"/>
     <use xlink:href="#DejaVuSans-43" transform="translate(1011.433594 0)"/>
     <use xlink:href="#DejaVuSans-55" transform="translate(1081.257812 0)"/>
     <use xlink:href="#DejaVuSans-44" transform="translate(1154.451172 0)"/>
     <use xlink:href="#DejaVuSans-41" transform="translate(1229.703125 0)"/>
    </g>
   </g>
   <g id="text_12">
    <!-- Transpose + Reshape -->
    <g style="fill: #831843" transform="translate(101.798437 425.424844) scale(0.105 -0.105)">
     <use xlink:href="#DejaVuSans-54"/>
     <use xlink:href="#DejaVuSans-72" transform="translate(46.333984 0)"/>
     <use xlink:href="#DejaVuSans-61" transform="translate(87.447266 0)"/>
     <use xlink:href="#DejaVuSans-6e" transform="translate(148.726562 0)"/>
     <use xlink:href="#DejaVuSans-73" transform="translate(212.105469 0)"/>
     <use xlink:href="#DejaVuSans-70" transform="translate(264.205078 0)"/>
     <use xlink:href="#DejaVuSans-6f" transform="translate(327.681641 0)"/>
     <use xlink:href="#DejaVuSans-73" transform="translate(388.863281 0)"/>
     <use xlink:href="#DejaVuSans-65" transform="translate(440.962891 0)"/>
     <use xlink:href="#DejaVuSans-20" transform="translate(502.486328 0)"/>
     <use xlink:href="#DejaVuSans-2b" transform="translate(534.273438 0)"/>
     <use xlink:href="#DejaVuSans-20" transform="translate(618.0625 0)"/>
     <use xlink:href="#DejaVuSans-52" transform="translate(649.849609 0)"/>
     <use xlink:href="#DejaVuSans-65" transform="translate(714.832031 0)"/>
     <use xlink:href="#DejaVuSans-73" transform="translate(776.355469 0)"/>
     <use xlink:href="#DejaVuSans-68" transform="translate(828.455078 0)"/>
     <use xlink:href="#DejaVuSans-61" transform="translate(891.833984 0)"/>
     <use xlink:href="#DejaVuSans-70" transform="translate(953.113281 0)"/>
     <use xlink:href="#DejaVuSans-65" transform="translate(1016.589844 0)"/>
    </g>
   </g>
   <g id="text_13">
    <!-- [B, T, 2048] -->
    <g style="fill: #831843" transform="translate(131.879531 446.295938) scale(0.09 -0.09)">
     <use xlink:href="#DejaVuSans-5b"/>
     <use xlink:href="#DejaVuSans-42" transform="translate(39.013672 0)"/>
     <use xlink:href="#DejaVuSans-2c" transform="translate(107.617188 0)"/>
     <use xlink:href="#DejaVuSans-20" transform="translate(139.404297 0)"/>
     <use xlink:href="#DejaVuSans-54" transform="translate(171.191406 0)"/>
     <use xlink:href="#DejaVuSans-2c" transform="translate(232.275391 0)"/>
     <use xlink:href="#DejaVuSans-20" transform="translate(264.0625 0)"/>
     <use xlink:href="#DejaVuSans-32" transform="translate(295.849609 0)"/>
     <use xlink:href="#DejaVuSans-30" transform="translate(359.472656 0)"/>
     <use xlink:href="#DejaVuSans-34" transform="translate(423.095703 0)"/>
     <use xlink:href="#DejaVuSans-38" transform="translate(486.71875 0)"/>
     <use xlink:href="#DejaVuSans-5d" transform="translate(550.341797 0)"/>
    </g>
   </g>
   <g id="text_14">
    <!-- out_proj -->
    <g style="fill: #14532d" transform="translate(134.167969 493.390828) scale(0.105 -0.105)">
     <defs>
      <path id="DejaVuSans-Bold-5f" d="M 3200 -916 
L 3200 -1509 
L 0 -1509 
L 0 -916 
L 3200 -916 
z
" transform="scale(0.015625)"/>
      <path id="DejaVuSans-Bold-70" d="M 1656 506 
L 1656 -1331 
L 538 -1331 
L 538 3500 
L 1656 3500 
L 1656 2988 
Q 1888 3294 2169 3439 
Q 2450 3584 2816 3584 
Q 3463 3584 3878 3070 
Q 4294 2556 4294 1747 
Q 4294 938 3878 423 
Q 3463 -91 2816 -91 
Q 2450 -91 2169 54 
Q 1888 200 1656 506 
z
M 2400 2772 
Q 2041 2772 1848 2508 
Q 1656 2244 1656 1747 
Q 1656 1250 1848 986 
Q 2041 722 2400 722 
Q 2759 722 2948 984 
Q 3138 1247 3138 1747 
Q 3138 2247 2948 2509 
Q 2759 2772 2400 2772 
z
" transform="scale(0.015625)"/>
     </defs>
     <use xlink:href="#DejaVuSans-Bold-6f"/>
     <use xlink:href="#DejaVuSans-Bold-75" transform="translate(68.701172 0)"/>
     <use xlink:href="#DejaVuSans-Bold-74" transform="translate(139.892578 0)"/>
     <use xlink:href="#DejaVuSans-Bold-5f" transform="translate(187.695312 0)"/>
     <use xlink:href="#DejaVuSans-Bold-70" transform="translate(237.695312 0)"/>
     <use xlink:href="#DejaVuSans-Bold-72" transform="translate(309.277344 0)"/>
     <use xlink:href="#DejaVuSans-Bold-6f" transform="translate(358.59375 0)"/>
     <use xlink:href="#DejaVuSans-Bold-6a" transform="translate(427.294922 0)"/>
    </g>
   </g>
   <g id="text_15">
    <!-- Linear 2048 → 2048   ·   no bias -->
    <g style="fill: #14532d" transform="translate(87.192422 514.407938) scale(0.09 -0.09)">
     <use xlink:href="#DejaVuSans-4c"/>
     <use xlink:href="#DejaVuSans-69" transform="translate(55.712891 0)"/>
     <use xlink:href="#DejaVuSans-6e" transform="translate(83.496094 0)"/>
     <use xlink:href="#DejaVuSans-65" transform="translate(146.875 0)"/>
     <use xlink:href="#DejaVuSans-61" transform="translate(208.398438 0)"/>
     <use xlink:href="#DejaVuSans-72" transform="translate(269.677734 0)"/>
     <use xlink:href="#DejaVuSans-20" transform="translate(310.791016 0)"/>
     <use xlink:href="#DejaVuSans-32" transform="translate(342.578125 0)"/>
     <use xlink:href="#DejaVuSans-30" transform="translate(406.201172 0)"/>
     <use xlink:href="#DejaVuSans-34" transform="translate(469.824219 0)"/>
     <use xlink:href="#DejaVuSans-38" transform="translate(533.447266 0)"/>
     <use xlink:href="#DejaVuSans-20" transform="translate(597.070312 0)"/>
     <use xlink:href="#DejaVuSans-2192" transform="translate(628.857422 0)"/>
     <use xlink:href="#DejaVuSans-20" transform="translate(712.646484 0)"/>
     <use xlink:href="#DejaVuSans-32" transform="translate(744.433594 0)"/>
     <use xlink:href="#DejaVuSans-30" transform="translate(808.056641 0)"/>
     <use xlink:href="#DejaVuSans-34" transform="translate(871.679688 0)"/>
     <use xlink:href="#DejaVuSans-38" transform="translate(935.302734 0)"/>
     <use xlink:href="#DejaVuSans-20" transform="translate(998.925781 0)"/>
     <use xlink:href="#DejaVuSans-20" transform="translate(1030.712891 0)"/>
     <use xlink:href="#DejaVuSans-20" transform="translate(1062.5 0)"/>
     <use xlink:href="#DejaVuSans-b7" transform="translate(1094.287109 0)"/>
     <use xlink:href="#DejaVuSans-20" transform="translate(1126.074219 0)"/>
     <use xlink:href="#DejaVuSans-20" transform="translate(1157.861328 0)"/>
     <use xlink:href="#DejaVuSans-20" transform="translate(1189.648438 0)"/>
     <use xlink:href="#DejaVuSans-6e" transform="translate(1221.435547 0)"/>
     <use xlink:href="#DejaVuSans-6f" transform="translate(1284.814453 0)"/>
     <use xlink:href="#DejaVuSans-20" transform="translate(1345.996094 0)"/>
     <use xlink:href="#DejaVuSans-62" transform="translate(1377.783203 0)"/>
     <use xlink:href="#DejaVuSans-69" transform="translate(1441.259766 0)"/>
     <use xlink:href="#DejaVuSans-61" transform="translate(1469.042969 0)"/>
     <use xlink:href="#DejaVuSans-73" transform="translate(1530.322266 0)"/>
    </g>
   </g>
   <g id="text_16">
    <!-- output   [B, T, 2048] -->
    <g style="fill: #374151" transform="translate(105.13793 563.777344) scale(0.105 -0.105)">
     <defs>
      <path id="DejaVuSans-75" d="M 544 1381 
L 544 3500 
L 1119 3500 
L 1119 1403 
Q 1119 906 1312 657 
Q 1506 409 1894 409 
Q 2359 409 2629 706 
Q 2900 1003 2900 1516 
L 2900 3500 
L 3475 3500 
L 3475 0 
L 2900 0 
L 2900 538 
Q 2691 219 2414 64 
Q 2138 -91 1772 -91 
Q 1169 -91 856 284 
Q 544 659 544 1381 
z
M 1991 3584 
L 1991 3584 
z
" transform="scale(0.015625)"/>
     </defs>
     <use xlink:href="#DejaVuSans-6f"/>
     <use xlink:href="#DejaVuSans-75" transform="translate(61.181641 0)"/>
     <use xlink:href="#DejaVuSans-74" transform="translate(124.560547 0)"/>
     <use xlink:href="#DejaVuSans-70" transform="translate(163.769531 0)"/>
     <use xlink:href="#DejaVuSans-75" transform="translate(227.246094 0)"/>
     <use xlink:href="#DejaVuSans-74" transform="translate(290.625 0)"/>
     <use xlink:href="#DejaVuSans-20" transform="translate(329.833984 0)"/>
     <use xlink:href="#DejaVuSans-20" transform="translate(361.621094 0)"/>
     <use xlink:href="#DejaVuSans-20" transform="translate(393.408203 0)"/>
     <use xlink:href="#DejaVuSans-5b" transform="translate(425.195312 0)"/>
     <use xlink:href="#DejaVuSans-42" transform="translate(464.208984 0)"/>
     <use xlink:href="#DejaVuSans-2c" transform="translate(532.8125 0)"/>
     <use xlink:href="#DejaVuSans-20" transform="translate(564.599609 0)"/>
     <use xlink:href="#DejaVuSans-54" transform="translate(596.386719 0)"/>
     <use xlink:href="#DejaVuSans-2c" transform="translate(657.470703 0)"/>
     <use xlink:href="#DejaVuSans-20" transform="translate(689.257812 0)"/>
     <use xlink:href="#DejaVuSans-32" transform="translate(721.044922 0)"/>
     <use xlink:href="#DejaVuSans-30" transform="translate(784.667969 0)"/>
     <use xlink:href="#DejaVuSans-34" transform="translate(848.291016 0)"/>
     <use xlink:href="#DejaVuSans-38" transform="translate(911.914062 0)"/>
     <use xlink:href="#DejaVuSans-5d" transform="translate(975.537109 0)"/>
    </g>
   </g>
  </g>
 </g>
 <defs>
  <clipPath id="p889aebf8c3">
   <rect x="3.6" y="3.6" width="309.6" height="583.596"/>
  </clipPath>
 </defs>
</svg>
